<svg width="88" height="88" viewBox="0 0 88 88" fill="none" xmlns="http://www.w3.org/2000/svg">
<g filter="url(#filter0_d_53_8)">
<rect x="4" width="80" height="80" rx="40" fill="#000F2E"/>
<g clip-path="url(#clip0_53_8)">
<g clip-path="url(#clip1_53_8)">
<g clip-path="url(#clip2_53_8)">
<path d="M25.6667 20C25.2246 20 24.8007 20.1756 24.4882 20.4882C24.1756 20.8007 24 21.2246 24 21.6667V58.3333C24 58.7754 24.1756 59.1993 24.4882 59.5118C24.8007 59.8244 25.2246 60 25.6667 60H62.3333C62.7754 60 63.1993 59.8244 63.5118 59.5118C63.8244 59.1993 64 58.7754 64 58.3333V21.6667C64 21.2246 63.8244 20.8007 63.5118 20.4882C63.1993 20.1756 62.7754 20 62.3333 20H25.6667ZM45.1583 54.0842C44.5675 55.2842 43.4408 56.0717 42.135 56.4525C40.1283 56.9133 38.2092 56.6508 36.7808 55.7933C36.2458 55.465 35.7767 55.0375 35.3783 54.5425C34.84 53.8733 35.1317 52.9225 35.8633 52.4742L37.2733 51.6108C37.49 51.4783 37.7058 51.5208 37.8325 51.7417C38.2208 52.3925 38.5558 52.8533 39.215 53.1767C39.8617 53.3975 41.2825 53.5383 41.8308 52.4C42.1658 51.8208 42.0592 49.9592 42.0592 47.8992L42.0725 39.9058C42.0742 38.985 42.82 38.2392 43.74 38.2392H44.1533C45.0742 38.2392 45.82 38.985 45.8208 39.9058L45.82 48.5275C45.8283 50.6333 46.0108 52.51 45.1575 54.0833L45.1583 54.0842ZM60.7017 53.0258C59.3992 57.4808 52.1375 57.6258 49.2358 54.6825L48.7067 54.0892C48.1417 53.44 48.4433 52.5 49.1883 52.0708L49.545 51.865C50.3125 51.4217 51.2558 51.6967 51.8975 52.3083C52.4225 52.8092 53.0217 53.1267 53.8392 53.2967C55.6783 53.5217 57.5292 52.8892 57.1142 50.9358C56.6875 49.34 53.3475 48.9525 51.075 47.2458C48.7675 45.6958 48.2267 41.93 50.1233 39.7783C50.755 38.9825 51.8333 38.3883 52.9642 38.1033L54.1442 37.9508C56.41 37.905 57.8267 38.5033 58.8658 39.6642C59.4925 40.2992 59.39 41.2392 58.6375 41.72C57.81 42.2492 56.5283 41.9592 55.6617 41.4967C55.5363 41.4298 55.4056 41.3735 55.2708 41.3283C54.2658 41.0233 52.9975 41.355 52.7342 42.4175C52.65 42.7192 52.6592 43.0017 52.775 43.4675C52.795 43.5492 52.8217 43.63 52.8625 43.7033C53.3275 44.5525 54.6325 44.9458 55.8075 45.4858C59.3375 46.9175 60.5292 48.4525 60.8225 50.28C61.105 51.8533 60.755 52.8733 60.7017 53.0258Z" fill="#F0DB4F"/>
</g>
</g>
</g>
</g>
<defs>
<filter id="filter0_d_53_8" x="0" y="0" width="88" height="88" filterUnits="userSpaceOnUse" color-interpolation-filters="sRGB">
<feFlood flood-opacity="0" result="BackgroundImageFix"/>
<feColorMatrix in="SourceAlpha" type="matrix" values="0 0 0 0 0 0 0 0 0 0 0 0 0 0 0 0 0 0 127 0" result="hardAlpha"/>
<feOffset dy="4"/>
<feGaussianBlur stdDeviation="2"/>
<feComposite in2="hardAlpha" operator="out"/>
<feColorMatrix type="matrix" values="0 0 0 0 0 0 0 0 0 0 0 0 0 0 0 0 0 0 0.25 0"/>
<feBlend mode="normal" in2="BackgroundImageFix" result="effect1_dropShadow_53_8"/>
<feBlend mode="normal" in="SourceGraphic" in2="effect1_dropShadow_53_8" result="shape"/>
</filter>
<clipPath id="clip0_53_8">
<rect width="40" height="40" fill="white" transform="translate(24 20)"/>
</clipPath>
<clipPath id="clip1_53_8">
<rect width="40" height="40" fill="white" transform="translate(24 20)"/>
</clipPath>
<clipPath id="clip2_53_8">
<rect width="40" height="40" fill="white" transform="translate(24 20)"/>
</clipPath>
</defs>
</svg>
