<svg width="88" height="88" viewBox="0 0 88 88" fill="none" xmlns="http://www.w3.org/2000/svg">
<g filter="url(#filter0_d_97_11)">
<rect x="4" width="80" height="80" rx="40" fill="#000F2E"/>
<path d="M42.2317 13.0145C42.1155 13.0251 41.746 13.062 41.4135 13.0884C33.7437 13.7798 26.5595 17.9176 22.0094 24.2774C19.4757 27.8135 17.8551 31.8247 17.2428 36.0733C17.0264 37.5564 17 37.9944 17 40.0053C17 42.0161 17.0264 42.4542 17.2428 43.9373C18.7103 54.0759 25.9261 62.5943 35.7126 65.7505C37.4651 66.3152 39.3126 66.7005 41.4135 66.9327C42.2317 67.0224 45.7683 67.0224 46.5865 66.9327C50.2129 66.5316 53.285 65.6344 56.315 64.088C56.7795 63.8505 56.8692 63.7871 56.8059 63.7344C56.7636 63.7027 54.7842 61.0479 52.4088 57.839L48.0909 52.007L42.6804 44.0006C39.7032 39.5989 37.254 35.9994 37.2328 35.9994C37.2117 35.9941 37.1906 39.5514 37.1801 43.895C37.1642 51.5004 37.1589 51.8065 37.0639 51.9859C36.9267 52.2445 36.8211 52.3501 36.5994 52.4662C36.4305 52.5507 36.2827 52.5665 35.4856 52.5665H34.5724L34.3296 52.4134C34.1713 52.3132 34.0551 52.1812 33.976 52.0282L33.8651 51.7907L33.8757 41.2086L33.8915 30.6213L34.0551 30.4155C34.1396 30.3047 34.3191 30.1622 34.4457 30.0935C34.6622 29.988 34.7466 29.9774 35.6598 29.9774C36.7367 29.9774 36.9161 30.0197 37.1959 30.3258C37.2751 30.4102 40.2047 34.8225 43.7097 40.1372C47.2147 45.452 52.0076 52.709 54.3619 56.2715L58.6375 62.7474L58.854 62.6049C60.7701 61.3593 62.7971 59.586 64.4018 57.7388C67.817 53.8173 70.0182 49.0356 70.7572 43.9373C70.9736 42.4542 71 42.0161 71 40.0053C71 37.9944 70.9736 37.5564 70.7572 36.0733C69.2897 25.9346 62.0739 17.4162 52.2874 14.2601C50.5613 13.7006 48.7243 13.3154 46.6657 13.0831C46.1589 13.0304 42.6698 12.9723 42.2317 13.0145ZM53.285 29.3441C53.5384 29.4708 53.7443 29.7135 53.8182 29.9669C53.8604 30.1041 53.871 33.0386 53.8604 39.6517L53.8446 49.1412L52.1713 46.5762L50.4927 44.0112V37.113C50.4927 32.6533 50.5138 30.1463 50.5455 30.0249C50.6299 29.7294 50.8147 29.4972 51.068 29.3599C51.2845 29.2491 51.3636 29.2385 52.1924 29.2385C52.9736 29.2385 53.1109 29.2491 53.285 29.3441Z" fill="#E0E0E0"/>
</g>
<defs>
<filter id="filter0_d_97_11" x="0" y="0" width="88" height="88" filterUnits="userSpaceOnUse" color-interpolation-filters="sRGB">
<feFlood flood-opacity="0" result="BackgroundImageFix"/>
<feColorMatrix in="SourceAlpha" type="matrix" values="0 0 0 0 0 0 0 0 0 0 0 0 0 0 0 0 0 0 127 0" result="hardAlpha"/>
<feOffset dy="4"/>
<feGaussianBlur stdDeviation="2"/>
<feComposite in2="hardAlpha" operator="out"/>
<feColorMatrix type="matrix" values="0 0 0 0 0 0 0 0 0 0 0 0 0 0 0 0 0 0 0.25 0"/>
<feBlend mode="normal" in2="BackgroundImageFix" result="effect1_dropShadow_97_11"/>
<feBlend mode="normal" in="SourceGraphic" in2="effect1_dropShadow_97_11" result="shape"/>
</filter>
</defs>
</svg>
