<svg width="88" height="88" viewBox="0 0 88 88" fill="none" xmlns="http://www.w3.org/2000/svg">
<g filter="url(#filter0_d_57_112)">
<rect x="4" width="80" height="80" rx="40" fill="#000F2E"/>
<g clip-path="url(#clip0_57_112)">
<g clip-path="url(#clip1_57_112)">
<path d="M59.2407 29.4792L45.4607 21.4778C44.5914 20.9828 43.46 20.9828 42.5843 21.4778L28.6564 29.4792C27.7593 29.995 27.125 30.965 27.125 32.0021V47.9842C27.125 49.0214 27.7764 49.9914 28.6729 50.51L32.3529 52.6C34.1114 53.4664 34.7336 53.4664 35.5336 53.4664C38.1379 53.4664 39.625 51.8914 39.625 49.145V33.3671C39.625 33.1442 39.5093 32.8128 39.29 32.8128H37.5329C37.31 32.8128 36.8121 33.1442 36.8121 33.3671V49.145C36.8121 50.3628 35.7107 51.5742 33.6529 50.545L29.8507 48.3535C29.7186 48.2814 29.625 48.1371 29.625 47.9842V32.0021C29.625 31.8514 29.7986 31.7 29.9321 31.6228L43.8143 23.635C43.8837 23.5987 43.9609 23.5797 44.0393 23.5797C44.1176 23.5797 44.1948 23.5987 44.2643 23.635L57.9771 31.6207C58.1086 31.7 58.0621 31.8464 58.0621 32.0014V47.9835C58.0621 48.1357 58.1193 48.2842 57.9893 48.3578L44.2121 56.3507C44.0943 56.4214 43.9479 56.4214 43.8179 56.3507L40.2843 54.2414C40.1779 54.1792 40.0514 54.1571 39.9493 54.2142C38.9664 54.7714 38.785 54.8457 37.8629 55.165C37.6357 55.2442 37.3014 55.3814 37.9907 55.7678L42.615 58.5035C43.0564 58.7585 43.5571 58.8928 44.0671 58.8928C44.5791 58.8938 45.0823 58.7595 45.5257 58.5035L59.24 50.5092C60.1371 49.9871 60.5621 49.0207 60.5621 47.9835V32.0021C60.5621 30.965 60.1371 29.9978 59.2407 29.4792ZM48.3471 45.4514C44.6829 45.4514 43.8757 44.4407 43.6064 42.6185C43.575 42.4221 43.4086 42.1878 43.2093 42.1878H41.4186C41.1971 42.1878 41.0193 42.4564 41.0193 42.6771C41.0193 45.01 42.2879 47.8371 48.3486 47.8371C52.7357 47.8371 55.2514 46.1321 55.2514 43.1157C55.2514 40.1242 53.2307 39.3392 48.9757 38.7764C44.675 38.2078 44.2379 37.9207 44.2379 36.9135C44.2379 36.0828 44.6079 34.975 47.7921 34.975C50.6371 34.975 51.6864 35.5857 52.1179 37.5035C52.155 37.6835 52.3193 37.8135 52.5057 37.8135H54.3036C54.4143 37.8135 54.52 37.7685 54.5971 37.69C54.6721 37.605 54.7121 37.4985 54.7021 37.3842C54.4236 34.0821 52.2293 32.5428 47.7921 32.5428C43.845 32.5428 41.49 34.21 41.49 37.0035C41.49 40.0342 43.8329 40.8714 47.6221 41.2464C52.155 41.6907 52.5071 42.3535 52.5071 43.245C52.5071 44.7935 51.2643 45.4528 48.3479 45.4528L48.3471 45.4514Z" fill="#83CD29"/>
</g>
</g>
</g>
<defs>
<filter id="filter0_d_57_112" x="0" y="0" width="88" height="88" filterUnits="userSpaceOnUse" color-interpolation-filters="sRGB">
<feFlood flood-opacity="0" result="BackgroundImageFix"/>
<feColorMatrix in="SourceAlpha" type="matrix" values="0 0 0 0 0 0 0 0 0 0 0 0 0 0 0 0 0 0 127 0" result="hardAlpha"/>
<feOffset dy="4"/>
<feGaussianBlur stdDeviation="2"/>
<feComposite in2="hardAlpha" operator="out"/>
<feColorMatrix type="matrix" values="0 0 0 0 0 0 0 0 0 0 0 0 0 0 0 0 0 0 0.25 0"/>
<feBlend mode="normal" in2="BackgroundImageFix" result="effect1_dropShadow_57_112"/>
<feBlend mode="normal" in="SourceGraphic" in2="effect1_dropShadow_57_112" result="shape"/>
</filter>
<clipPath id="clip0_57_112">
<rect width="40" height="40" fill="white" transform="translate(24 20)"/>
</clipPath>
<clipPath id="clip1_57_112">
<rect width="40" height="40" fill="white" transform="translate(24 20)"/>
</clipPath>
</defs>
</svg>
