<svg width="88" height="88" viewBox="0 0 88 88" fill="none" xmlns="http://www.w3.org/2000/svg">
<g filter="url(#filter0_d_55_84)">
<circle cx="44" cy="40" r="40" fill="#000F2E"/>
</g>
<g clip-path="url(#clip0_55_84)">
<path d="M23 40C23 42.7578 23.5432 45.4885 24.5985 48.0364C25.6539 50.5842 27.2007 52.8992 29.1508 54.8492C31.1008 56.7993 33.4158 58.3461 35.9636 59.4015C38.5115 60.4568 41.2422 61 44 61C46.7578 61 49.4885 60.4568 52.0364 59.4015C54.5842 58.3461 56.8992 56.7993 58.8492 54.8492C60.7993 52.8992 62.3461 50.5842 63.4015 48.0364C64.4568 45.4885 65 42.7578 65 40C65 37.2422 64.4568 34.5115 63.4015 31.9636C62.3461 29.4158 60.7993 27.1008 58.8492 25.1508C56.8992 23.2007 54.5842 21.6539 52.0364 20.5985C49.4885 19.5432 46.7578 19 44 19C41.2422 19 38.5115 19.5432 35.9636 20.5985C33.4158 21.6539 31.1008 23.2007 29.1508 25.1508C27.2007 27.1008 25.6539 29.4158 24.5985 31.9636C23.5432 34.5115 23 37.2422 23 40Z" stroke="#F95A00" stroke-width="4" stroke-linecap="round" stroke-linejoin="round"/>
<path d="M32.3334 35.3334V40C32.3334 41.2377 32.825 42.4247 33.7002 43.2999C34.5754 44.175 35.7624 44.6667 37 44.6667C38.2377 44.6667 39.4247 44.175 40.2999 43.2999C41.175 42.4247 41.6667 41.2377 41.6667 40V35.3334" stroke="#F95A00" stroke-width="4" stroke-linecap="round" stroke-linejoin="round"/>
<path d="M48.6666 35.3334L55.6666 44.6667" stroke="#F95A00" stroke-width="4" stroke-linecap="round" stroke-linejoin="round"/>
<path d="M48.6666 44.6667L55.6666 35.3334" stroke="#F95A00" stroke-width="4" stroke-linecap="round" stroke-linejoin="round"/>
</g>
<defs>
<filter id="filter0_d_55_84" x="0" y="0" width="88" height="88" filterUnits="userSpaceOnUse" color-interpolation-filters="sRGB">
<feFlood flood-opacity="0" result="BackgroundImageFix"/>
<feColorMatrix in="SourceAlpha" type="matrix" values="0 0 0 0 0 0 0 0 0 0 0 0 0 0 0 0 0 0 127 0" result="hardAlpha"/>
<feOffset dy="4"/>
<feGaussianBlur stdDeviation="2"/>
<feComposite in2="hardAlpha" operator="out"/>
<feColorMatrix type="matrix" values="0 0 0 0 0 0 0 0 0 0 0 0 0 0 0 0 0 0 0.25 0"/>
<feBlend mode="normal" in2="BackgroundImageFix" result="effect1_dropShadow_55_84"/>
<feBlend mode="normal" in="SourceGraphic" in2="effect1_dropShadow_55_84" result="shape"/>
</filter>
<clipPath id="clip0_55_84">
<rect width="56" height="56" fill="white" transform="translate(16 12)"/>
</clipPath>
</defs>
</svg>
