<?xml version="1.0" standalone="no"?>
<!DOCTYPE svg PUBLIC "-//W3C//DTD SVG 20010904//EN"
 "http://www.w3.org/TR/2001/REC-SVG-20010904/DTD/svg10.dtd">
<svg version="1.0" xmlns="http://www.w3.org/2000/svg"
 width="169.000000pt" height="169.000000pt" viewBox="0 0 169.000000 169.000000"
 preserveAspectRatio="xMidYMid meet">
<metadata>
Created by potrace 1.14, written by Peter Selinger 2001-2017
</metadata>
<g transform="translate(0.000000,169.000000) scale(0.100000,-0.100000)"
fill="#000000" stroke="none">
<path d="M620 1563 c-118 -69 -225 -131 -237 -137 -31 -15 -26 -23 32 -55 28
-16 90 -51 139 -80 49 -28 93 -51 97 -51 5 0 9 -3 9 -7 0 -5 10 -13 23 -19 49
-23 112 -59 115 -66 2 -5 8 -8 12 -8 5 0 80 -41 167 -92 87 -50 178 -102 203
-116 25 -14 86 -49 135 -77 l90 -52 3 -150 3 -150 -114 -60 -114 -59 -139 79
c-77 44 -159 91 -184 105 -25 14 -62 36 -82 49 -21 12 -39 23 -41 23 -1 0 -70
38 -152 85 l-150 86 -3 -107 c-2 -80 1 -110 10 -116 29 -18 366 -213 403 -233
22 -12 99 -57 171 -99 72 -42 137 -76 143 -76 6 0 29 11 51 25 22 14 42 25 46
25 3 0 18 8 32 19 15 10 47 29 72 43 25 14 82 46 128 73 l82 48 0 248 c0 192
-3 248 -13 251 -10 2 -198 110 -277 158 -8 5 -87 51 -175 103 -371 216 -415
242 -415 247 0 3 33 22 73 44 l73 39 353 -202 c194 -112 360 -205 368 -208 11
-5 13 10 11 86 l-3 92 -305 175 c-168 97 -332 191 -365 209 l-61 34 -214 -126z"/>
<path d="M147 1299 l-37 -20 2 -436 3 -437 60 -34 c88 -50 115 -65 399 -222
l259 -143 51 26 c28 15 68 37 89 50 l38 23 -368 211 -368 210 -1 281 -2 280
122 -70 c66 -39 256 -150 421 -246 165 -96 305 -175 312 -175 7 0 30 8 51 17
38 17 39 19 35 59 -2 23 -6 47 -8 53 -3 9 -223 142 -430 259 -22 13 -141 82
-264 154 -123 72 -225 131 -228 131 -2 0 -21 11 -41 25 -44 30 -46 30 -95 4z"/>
</g>
</svg>
