<svg width="128" height="128" viewBox="0 0 128 128" fill="none" xmlns="http://www.w3.org/2000/svg">
<g clip-path="url(#clip0_956_63)">
<path d="M10.6667 64C13.4957 64 16.2088 62.8762 18.2092 60.8758C20.2096 58.8754 21.3334 56.1623 21.3334 53.3333V32C21.3334 29.171 22.4572 26.4579 24.4576 24.4575C26.458 22.4571 29.1711 21.3333 32.0001 21.3333H96.0001C98.8291 21.3333 101.542 22.4571 103.543 24.4575C105.543 26.4579 106.667 29.171 106.667 32V53.3333C106.667 56.1623 107.791 58.8754 109.791 60.8758C111.791 62.8762 114.504 64 117.333 64" stroke="#883FFF" stroke-width="7" stroke-linecap="round" stroke-linejoin="round"/>
<path d="M10.6667 64C13.4957 64 16.2088 65.1238 18.2092 67.1242C20.2096 69.1246 21.3334 71.8377 21.3334 74.6667V96C21.3334 98.829 22.4572 101.542 24.4576 103.542C26.458 105.543 29.1711 106.667 32.0001 106.667H96.0001C98.8291 106.667 101.542 105.543 103.543 103.542C105.543 101.542 106.667 98.829 106.667 96V74.6667C106.667 71.8377 107.791 69.1246 109.791 67.1242C111.791 65.1238 114.504 64 117.333 64" stroke="#883FFF" stroke-width="7" stroke-linecap="round" stroke-linejoin="round"/>
<path d="M48 85.3333V42.6667H66.6667C69.4956 42.6667 72.2087 43.7905 74.2091 45.7909C76.2095 47.7913 77.3333 50.5044 77.3333 53.3333C77.3333 56.1623 76.2095 58.8754 74.2091 60.8758C72.2087 62.8762 69.4956 64 66.6667 64H48H69.3333C72.1623 64 74.8754 65.1238 76.8758 67.1242C78.8762 69.1246 80 71.8377 80 74.6667C80 77.4956 78.8762 80.2088 76.8758 82.2091C74.8754 84.2095 72.1623 85.3333 69.3333 85.3333H48Z" stroke="#883FFF" stroke-width="7" stroke-linecap="round" stroke-linejoin="round"/>
</g>
<defs>
<clipPath id="clip0_956_63">
<rect width="128" height="128" fill="white"/>
</clipPath>
</defs>
</svg>
