<svg width="96" height="96" viewBox="0 0 96 96" fill="none" xmlns="http://www.w3.org/2000/svg">
<g clip-path="url(#clip0_955_52)">
<path d="M36 76C18.8 81.6 18.8 66 12 64M60 84V70C60 66 60.4 64.4 58 62C69.2 60.8 80 56.4 80 38C79.9951 33.2199 78.1302 28.6292 74.8 25.2C76.3619 21.0479 76.2181 16.4465 74.4 12.4C74.4 12.4 70 11.2 60.4 17.6C52.269 15.4824 43.731 15.4824 35.6 17.6C26 11.2 21.6 12.4 21.6 12.4C19.7819 16.4465 19.6381 21.0479 21.2 25.2C17.8698 28.6292 16.0049 33.2199 16 38C16 56.4 26.8 60.8 38 62C35.6 64.4 35.6 66.8 36 70V84" stroke="white" stroke-width="6" stroke-linecap="round" stroke-linejoin="round"/>
</g>
<defs>
<clipPath id="clip0_955_52">
<rect width="96" height="96" fill="white"/>
</clipPath>
</defs>
</svg>
