<svg width="81" height="83" viewBox="0 0 81 83" fill="none" xmlns="http://www.w3.org/2000/svg">
<path d="M77.6667 3L68.3333 70.6667L40.3333 80L12.3333 70.6667L3 3H77.6667Z" fill="#F95A00" stroke="url(#paint0_linear_955_25)" stroke-width="6" stroke-linecap="round" stroke-linejoin="round"/>
<path d="M19 21.6665H33V58.9998L23.6667 54.3332" fill="#F95A00"/>
<path d="M19 21.6665H33V58.9998L23.6667 54.3332" stroke="white" stroke-width="6" stroke-linecap="round" stroke-linejoin="round"/>
<path d="M61 21.6665H49.3333C48.7145 21.6665 48.121 21.9123 47.6834 22.3499C47.2458 22.7875 47 23.381 47 23.9998V37.9998C47 38.6187 47.2458 39.2122 47.6834 39.6498C48.121 40.0873 48.7145 40.3332 49.3333 40.3332H55.974C56.308 40.3332 56.6381 40.405 56.9419 40.5436C57.2458 40.6822 57.5164 40.8844 57.7354 41.1366C57.9544 41.3887 58.1167 41.685 58.2113 42.0053C58.306 42.3256 58.3308 42.6625 58.284 42.9932L56.3333 56.6665L47 58.9998" fill="#F95A00"/>
<path d="M61 21.6665H49.3333C48.7145 21.6665 48.121 21.9123 47.6834 22.3499C47.2458 22.7875 47 23.381 47 23.9998V37.9998C47 38.6187 47.2458 39.2122 47.6834 39.6498C48.121 40.0873 48.7145 40.3332 49.3333 40.3332H55.974C56.308 40.3332 56.6381 40.405 56.9419 40.5436C57.2458 40.6822 57.5164 40.8844 57.7354 41.1366C57.9544 41.3887 58.1167 41.685 58.2113 42.0053C58.306 42.3256 58.3308 42.6625 58.284 42.9932L56.3333 56.6665L47 58.9998" stroke="white" stroke-width="6" stroke-linecap="round" stroke-linejoin="round"/>
<defs>
<linearGradient id="paint0_linear_955_25" x1="40.3333" y1="3" x2="126" y2="95.5" gradientUnits="userSpaceOnUse">
<stop offset="0.295503" stop-color="#F95A00"/>
<stop offset="1" stop-color="#FFB800"/>
</linearGradient>
</defs>
</svg>
