<svg width="128" height="128" viewBox="0 0 128 128" fill="none" xmlns="http://www.w3.org/2000/svg">
<g clip-path="url(#clip0_955_48)">
<path d="M33.9041 48C19.8401 51.6267 10.6667 57.84 10.6667 64.9333C10.6667 76.1707 34.1601 85.3333 63.2001 85.3333C67.1468 85.3333 69.9201 85.1253 73.6001 84.816" stroke="#086EE6" stroke-width="6" stroke-linecap="round" stroke-linejoin="round"/>
<path d="M52.464 84.8C50.2614 81.6213 48.1654 78.7573 46.1707 75.2C31.4987 49.0667 27.568 23.0933 37.4774 17.2107C43.6107 13.4933 53.728 18.56 64.0054 29.232" stroke="#086EE6" stroke-width="6" stroke-linecap="round" stroke-linejoin="round"/>
<path d="M34.288 82.064C30.544 96.4 31.3013 107.216 37.2747 110.837C46.784 116.597 66.0053 100.395 80.1707 74.5493C82.0907 70.976 83.8133 67.4613 85.3333 64" stroke="#086EE6" stroke-width="6" stroke-linecap="round" stroke-linejoin="round"/>
<path d="M64 98.7733C74.2827 109.44 84.3573 114.507 90.5493 110.789C100.416 104.912 96.528 78.9387 81.84 52.8C79.792 49.1893 77.696 46.3787 75.5467 43.2" stroke="#086EE6" stroke-width="6" stroke-linecap="round" stroke-linejoin="round"/>
<path d="M94.1866 80C108.117 76.336 117.333 70.1333 117.333 63.0613C117.333 51.808 93.8239 42.6667 64.8266 42.6667C60.8426 42.6667 58.0746 42.8213 54.3999 43.1307" stroke="#086EE6" stroke-width="6" stroke-linecap="round" stroke-linejoin="round"/>
<path d="M42.6667 64C44.1867 60.48 45.9041 57.024 47.8294 53.4507C61.9468 27.616 81.1787 11.3707 90.7414 17.1787C96.6614 20.8 97.4721 31.6107 93.7281 45.9413" stroke="#086EE6" stroke-width="6" stroke-linecap="round" stroke-linejoin="round"/>
<path d="M65.3866 64.08H65.3333C65.2799 64.7733 64.6933 65.36 63.9466 65.36C63.5895 65.3423 63.2526 65.189 63.0048 64.9312C62.757 64.6735 62.6169 64.3309 62.6133 63.9733C62.6133 63.2267 63.1999 62.64 63.8933 62.64H63.84C64.5333 62.5867 65.1733 63.2267 65.1733 63.92" stroke="#086EE6" stroke-width="6" stroke-linecap="round" stroke-linejoin="round"/>
</g>
<defs>
<clipPath id="clip0_955_48">
<rect width="128" height="128" fill="white"/>
</clipPath>
</defs>
</svg>
