<svg width="100" height="100" viewBox="0 0 100 100" fill="none" xmlns="http://www.w3.org/2000/svg">
<path d="M8 50C8 55.5155 9.08636 60.977 11.1971 66.0727C13.3078 71.1684 16.4015 75.7984 20.3015 79.6985C24.2016 83.5985 28.8316 86.6922 33.9273 88.8029C39.023 90.9136 44.4845 92 50 92C55.5155 92 60.977 90.9136 66.0727 88.8029C71.1684 86.6922 75.7984 83.5985 79.6985 79.6985C83.5985 75.7984 86.6922 71.1684 88.8029 66.0727C90.9136 60.977 92 55.5155 92 50C92 44.4845 90.9136 39.023 88.8029 33.9273C86.6922 28.8316 83.5985 24.2016 79.6985 20.3015C75.7984 16.4015 71.1684 13.3078 66.0727 11.1971C60.977 9.08636 55.5155 8 50 8C44.4845 8 39.023 9.08636 33.9273 11.1971C28.8316 13.3078 24.2016 16.4015 20.3015 20.3015C16.4015 24.2016 13.3078 28.8316 11.1971 33.9273C9.08636 39.023 8 44.4845 8 50Z" fill="#ED3381" stroke="url(#paint0_linear_955_31)" stroke-width="6" stroke-linecap="round" stroke-linejoin="round"/>
<path d="M49.6676 43.4313C61.1476 39.5767 68.3343 39.5767 68.3343 33.3747C68.3343 27 62.0483 27 55.571 27C46.6576 27 39.9283 29.2867 34.3983 35.1573C30.441 39.3667 29.6056 46.586 33.6843 50.59C38.225 55.0513 48.6456 58.9387 47.143 66.8907C46.0556 72.654 40.2876 75.398 34.9303 72.5C31.281 70.5213 32.8116 64.352 37.8516 60.7773C42.8916 57.2027 51.021 56.148 56.985 59.6573C61.5583 62.3407 61.8663 67.7027 59.0103 69.8913" stroke="white" stroke-width="6" stroke-linecap="round" stroke-linejoin="round"/>
<defs>
<linearGradient id="paint0_linear_955_31" x1="50" y1="8" x2="143.5" y2="127.5" gradientUnits="userSpaceOnUse">
<stop stop-color="#ED3381"/>
<stop offset="1" stop-color="#ED3381" stop-opacity="0"/>
</linearGradient>
</defs>
</svg>
